<svg style="display:none">
    <symbol id="icon-plus" width="24" height="24" viewBox="0 0 24 24" fill="none" xmlns="http://www.w3.org/2000/svg">
        <path d="M12 5.5V18.5M5.5 12L18.5 12" stroke="black" stroke-width="1.5" stroke-linecap="square"/>
    </symbol>
    
    <symbol id="icon-arrow-down" width="24" height="24" viewBox="0 0 24 24" fill="none" xmlns="http://www.w3.org/2000/svg">
        <path fill-rule="evenodd" clip-rule="evenodd" d="M16.5623 8.94116L16.0017 9.43943L12 12.9965L7.99828 9.43943L7.43772 8.94116L6.44118 10.0623L7.00173 10.5605L11.5017 14.5605L12 15.0035L12.4983 14.5605L16.9983 10.5605L17.5588 10.0623L16.5623 8.94116Z" fill="#3C3C43" fill-opacity="0.5"/>
    </symbol>

    <symbol id="icon-all-photos" width="32.000000" height="32.000000" viewBox="0 0 32 32" fill="none" xmlns="http://www.w3.org/2000/svg" xmlns:xlink="http://www.w3.org/1999/xlink">
        <g clip-path="url(#clip1_471)">
            <rect id="Rectangle 553" x="10.000000" y="10.000000" width="2.000000" height="2.000000" fill="#FFFFFF" fill-opacity="1.000000"/>
            <rect id="Rectangle 556" x="10.000000" y="15.000000" width="2.000000" height="2.000000" fill="#FFFFFF" fill-opacity="1.000000"/>
            <rect id="Rectangle 559" x="10.000000" y="20.000000" width="2.000000" height="2.000000" fill="#FFFFFF" fill-opacity="1.000000"/>
            <rect id="Rectangle 554" x="15.000000" y="10.000000" width="2.000000" height="2.000000" fill="#FFFFFF" fill-opacity="1.000000"/>
            <rect id="Rectangle 557" x="15.000000" y="15.000000" width="2.000000" height="2.000000" fill="#FFFFFF" fill-opacity="1.000000"/>
            <rect id="Rectangle 560" x="15.000000" y="20.000000" width="2.000000" height="2.000000" fill="#FFFFFF" fill-opacity="1.000000"/>
            <rect id="Rectangle 555" x="20.000000" y="10.000000" width="2.000000" height="2.000000" fill="#FFFFFF" fill-opacity="1.000000"/>
            <rect id="Rectangle 558" x="20.000000" y="15.000000" width="2.000000" height="2.000000" fill="#FFFFFF" fill-opacity="1.000000"/>
            <rect id="Rectangle 561" x="20.000000" y="20.000000" width="2.000000" height="2.000000" fill="#FFFFFF" fill-opacity="1.000000"/>
        </g>
    </symbol>

    <symbol id="icon-share" width="32.000000" height="32.000000" viewBox="0 0 32 32" fill="none" xmlns="http://www.w3.org/2000/svg" xmlns:xlink="http://www.w3.org/1999/xlink">
        <rect id="icon/share-small" rx="15.500000" width="31.000000" height="31.000000" transform="translate(0.500000 0.500000)" fill="#FFFFFF" fill-opacity="1.000000"/>
        <g clip-path="url(#clip1_506)">
            <path id="Union" d="M17 9.91431L18.7929 11.7073L20.2071 10.2931L16 6.08594L11.7929 10.2931L13.2071 11.7073L15 9.91431L15 19.0001L17 19.0001L17 9.91431ZM12.5 13.0001L13 13.0001L13 15.0001L12.5 15.0001Q12.2929 15.0001 12.1161 15.0734L12.1161 15.0734L12.1161 15.0734Q11.9393 15.1466 11.7929 15.293Q11.6465 15.4395 11.5732 15.6162L11.5732 15.6162Q11.5 15.793 11.5 16.0001L11.5 21.0001Q11.5 21.2073 11.5732 21.384L11.5732 21.384Q11.6465 21.5608 11.7929 21.7073Q11.9393 21.8536 12.1161 21.9269L12.1162 21.9269Q12.2929 22.0001 12.5 22.0001L19.5 22.0001Q19.7071 22.0001 19.8839 21.9269Q20.0607 21.8536 20.2071 21.7073Q20.3535 21.5608 20.4268 21.384Q20.5 21.2073 20.5 21.0001L20.5 16.0001Q20.5 15.7931 20.4268 15.6163L20.4268 15.6162L20.4268 15.6162L20.4268 15.6162Q20.3535 15.4395 20.2071 15.293Q20.0607 15.1466 19.8841 15.0734L19.884 15.0734L19.8839 15.0734Q19.7071 15.0001 19.5 15.0001L19 15.0001L19 13.0001L19.5 13.0001C21.1569 13.0001 22.5 14.3433 22.5 16.0001L22.5 21.0001C22.5 22.657 21.1569 24.0001 19.5 24.0001L12.5 24.0001C10.8431 24.0001 9.5 22.657 9.5 21.0001L9.5 16.0001C9.5 14.3433 10.8431 13.0001 12.5 13.0001Z" clip-rule="evenodd" fill="#000000" fill-opacity="1.000000" fill-rule="evenodd"/>
        </g>
    </symbol>

    <symbol id="icon-bookmark" width="32.000000" height="32.000000" viewBox="0 0 32 32" fill="none" xmlns="http://www.w3.org/2000/svg" xmlns:xlink="http://www.w3.org/1999/xlink">
        <rect id="icon/bookmark-small" rx="15.656250" width="31.312500" height="31.312500" transform="translate(0.343750 0.343750)" fill="#FFFFFF" fill-opacity="1.000000"/>
        <g clip-path="url(#clip1_502)">
            <path id="Rectangle 278 (Stroke)" d="M16 20.52L22 24L22 12.77C22 11.11 22 10.29 21.68 9.65C21.39 9.07 20.92 8.6 20.34 8.31C19.7 8 18.88 8 17.23 8L14.77 8C13.11 8 12.29 8 11.65 8.31C11.07 8.6 10.6 9.07 10.31 9.65C10 10.29 10 11.11 10 12.77L10 24L16 20.52ZM12 20.53L16 18.21L20 20.53L20 12.77Q20 12.01 19.99 11.7Q19.98 11.26 19.96 10.99Q19.94 10.76 19.91 10.63Q19.9 10.57 19.89 10.55Q19.82 10.4 19.7 10.29Q19.59 10.18 19.44 10.1Q19.42 10.09 19.36 10.08Q19.23 10.05 19 10.03Q18.73 10.01 18.29 10Q17.98 10 17.23 10L14.77 10Q14.01 10 13.7 10Q13.26 10.01 12.99 10.03Q12.76 10.05 12.63 10.08Q12.57 10.09 12.55 10.1Q12.4 10.18 12.29 10.29Q12.18 10.4 12.1 10.55Q12.09 10.57 12.08 10.63Q12.05 10.76 12.03 10.99Q12.01 11.26 12 11.7Q12 12.01 12 12.77L12 20.53Z" fill="#000000" fill-opacity="1.000000" fill-rule="evenodd"/>
        </g>
    </symbol>
</svg>