<svg style="display:none">
    <symbol id="icon-plus" width="24" height="24" viewBox="0 0 24 24" fill="none" xmlns="http://www.w3.org/2000/svg">
        <path d="M12 5.5V18.5M5.5 12L18.5 12" stroke="black" stroke-width="1.5" stroke-linecap="square"/>
    </symbol>
    
    <symbol id="icon-arrow-down" width="24" height="24" viewBox="0 0 24 24" fill="none" xmlns="http://www.w3.org/2000/svg">
        <path fill-rule="evenodd" clip-rule="evenodd" d="M16.5623 8.94116L16.0017 9.43943L12 12.9965L7.99828 9.43943L7.43772 8.94116L6.44118 10.0623L7.00173 10.5605L11.5017 14.5605L12 15.0035L12.4983 14.5605L16.9983 10.5605L17.5588 10.0623L16.5623 8.94116Z" fill="#3C3C43" fill-opacity="0.5"/>
    </symbol>

    <symbol id="icon-all-photos" width="32.000000" height="32.000000" viewBox="0 0 32 32" fill="none" xmlns="http://www.w3.org/2000/svg" xmlns:xlink="http://www.w3.org/1999/xlink">
        <g clip-path="url(#clip1_471)">
            <rect id="Rectangle 553" x="10.000000" y="10.000000" width="2.000000" height="2.000000" fill="#FFFFFF" fill-opacity="1.000000"/>
            <rect id="Rectangle 556" x="10.000000" y="15.000000" width="2.000000" height="2.000000" fill="#FFFFFF" fill-opacity="1.000000"/>
            <rect id="Rectangle 559" x="10.000000" y="20.000000" width="2.000000" height="2.000000" fill="#FFFFFF" fill-opacity="1.000000"/>
            <rect id="Rectangle 554" x="15.000000" y="10.000000" width="2.000000" height="2.000000" fill="#FFFFFF" fill-opacity="1.000000"/>
            <rect id="Rectangle 557" x="15.000000" y="15.000000" width="2.000000" height="2.000000" fill="#FFFFFF" fill-opacity="1.000000"/>
            <rect id="Rectangle 560" x="15.000000" y="20.000000" width="2.000000" height="2.000000" fill="#FFFFFF" fill-opacity="1.000000"/>
            <rect id="Rectangle 555" x="20.000000" y="10.000000" width="2.000000" height="2.000000" fill="#FFFFFF" fill-opacity="1.000000"/>
            <rect id="Rectangle 558" x="20.000000" y="15.000000" width="2.000000" height="2.000000" fill="#FFFFFF" fill-opacity="1.000000"/>
            <rect id="Rectangle 561" x="20.000000" y="20.000000" width="2.000000" height="2.000000" fill="#FFFFFF" fill-opacity="1.000000"/>
        </g>
    </symbol>

    <symbol id="icon-share" width="32.000000" height="32.000000" viewBox="0 0 32 32" fill="none" xmlns="http://www.w3.org/2000/svg" xmlns:xlink="http://www.w3.org/1999/xlink">
        <rect id="icon/share-small" rx="15.500000" width="31.000000" height="31.000000" transform="translate(0.500000 0.500000)" fill="#FFFFFF" fill-opacity="1.000000"/>
        <g clip-path="url(#clip1_506)">
            <path id="Union" d="M17 9.91431L18.7929 11.7073L20.2071 10.2931L16 6.08594L11.7929 10.2931L13.2071 11.7073L15 9.91431L15 19.0001L17 19.0001L17 9.91431ZM12.5 13.0001L13 13.0001L13 15.0001L12.5 15.0001Q12.2929 15.0001 12.1161 15.0734L12.1161 15.0734L12.1161 15.0734Q11.9393 15.1466 11.7929 15.293Q11.6465 15.4395 11.5732 15.6162L11.5732 15.6162Q11.5 15.793 11.5 16.0001L11.5 21.0001Q11.5 21.2073 11.5732 21.384L11.5732 21.384Q11.6465 21.5608 11.7929 21.7073Q11.9393 21.8536 12.1161 21.9269L12.1162 21.9269Q12.2929 22.0001 12.5 22.0001L19.5 22.0001Q19.7071 22.0001 19.8839 21.9269Q20.0607 21.8536 20.2071 21.7073Q20.3535 21.5608 20.4268 21.384Q20.5 21.2073 20.5 21.0001L20.5 16.0001Q20.5 15.7931 20.4268 15.6163L20.4268 15.6162L20.4268 15.6162L20.4268 15.6162Q20.3535 15.4395 20.2071 15.293Q20.0607 15.1466 19.8841 15.0734L19.884 15.0734L19.8839 15.0734Q19.7071 15.0001 19.5 15.0001L19 15.0001L19 13.0001L19.5 13.0001C21.1569 13.0001 22.5 14.3433 22.5 16.0001L22.5 21.0001C22.5 22.657 21.1569 24.0001 19.5 24.0001L12.5 24.0001C10.8431 24.0001 9.5 22.657 9.5 21.0001L9.5 16.0001C9.5 14.3433 10.8431 13.0001 12.5 13.0001Z" clip-rule="evenodd" fill="#000000" fill-opacity="1.000000" fill-rule="evenodd"/>
        </g>
    </symbol>

    <symbol id="icon-bookmark" width="32.000000" height="32.000000" viewBox="0 0 32 32" fill="none" xmlns="http://www.w3.org/2000/svg" xmlns:xlink="http://www.w3.org/1999/xlink">
        <rect id="icon/bookmark-small" rx="15.656250" width="31.312500" height="31.312500" transform="translate(0.343750 0.343750)" fill="#FFFFFF" fill-opacity="1.000000"/>
        <g clip-path="url(#clip1_502)">
            <path id="Rectangle 278 (Stroke)" d="M16 20.52L22 24L22 12.77C22 11.11 22 10.29 21.68 9.65C21.39 9.07 20.92 8.6 20.34 8.31C19.7 8 18.88 8 17.23 8L14.77 8C13.11 8 12.29 8 11.65 8.31C11.07 8.6 10.6 9.07 10.31 9.65C10 10.29 10 11.11 10 12.77L10 24L16 20.52ZM12 20.53L16 18.21L20 20.53L20 12.77Q20 12.01 19.99 11.7Q19.98 11.26 19.96 10.99Q19.94 10.76 19.91 10.63Q19.9 10.57 19.89 10.55Q19.82 10.4 19.7 10.29Q19.59 10.18 19.44 10.1Q19.42 10.09 19.36 10.08Q19.23 10.05 19 10.03Q18.73 10.01 18.29 10Q17.98 10 17.23 10L14.77 10Q14.01 10 13.7 10Q13.26 10.01 12.99 10.03Q12.76 10.05 12.63 10.08Q12.57 10.09 12.55 10.1Q12.4 10.18 12.29 10.29Q12.18 10.4 12.1 10.55Q12.09 10.57 12.08 10.63Q12.05 10.76 12.03 10.99Q12.01 11.26 12 11.7Q12 12.01 12 12.77L12 20.53Z" fill="#000000" fill-opacity="1.000000" fill-rule="evenodd"/>
        </g>
    </symbol>

    <symbol id="icon-plane" width="32.000000" height="32.000000" viewBox="0 0 32 32" fill="none" xmlns="http://www.w3.org/2000/svg" xmlns:xlink="http://www.w3.org/1999/xlink">
        <g clip-path="url(#clip1_529)">
            <path id="Union" d="M18.62 14.12L14.12 8.12L12.25 8.12L14.5 14.5L10.75 14.87L9.62 12.25L8.12 12.25L8.12 19.75L9.62 19.75L10.75 17.12L14.5 17.5L12.25 23.87L14.12 23.87L18.62 17.87C19.75 17.87 20.87 17.87 22 17.87C23.03 17.87 23.87 17.03 23.87 16C23.87 14.96 23.03 14.12 22 14.12C20.87 14.12 19.75 14.12 18.62 14.12Z" fill="#000000" fill-opacity="1.000000" fill-rule="nonzero"/>
        </g>
    </symbol>

    <symbol id="icon-person" width="32.000000" height="32.000000" viewBox="0 0 32 32" fill="none" xmlns="http://www.w3.org/2000/svg" xmlns:xlink="http://www.w3.org/1999/xlink">
        <g clip-path="url(#clip1_536)">
            <path id="Union" d="M16 15.66C17.84 15.66 19.33 14.17 19.33 12.33C19.33 10.49 17.84 9 16 9C14.15 9 12.66 10.49 12.66 12.33C12.66 14.17 14.15 15.66 16 15.66ZM23 20.09C19.09 16.32 12.9 16.32 9 20.09L9 22.66L23 22.66L23 20.09Z" fill="#000000" fill-opacity="1.000000" fill-rule="evenodd"/>
        </g>
    </symbol>

    <symbol id="icon-calendar" width="32.000000" height="32.000000" viewBox="0 0 32 32" fill="none" xmlns="http://www.w3.org/2000/svg" xmlns:xlink="http://www.w3.org/1999/xlink">
        <g clip-path="url(#clip1_533)">
            <path id="Union" d="M12.875 8L10.625 8L10.625 9.5L10.25 9.5C9.00735 9.5 8 10.5074 8 11.75L8 24L24.5 24L24.5 11.75C24.5 10.5074 23.4926 9.5 22.25 9.5L21.875 9.5L21.875 8L19.625 8L19.625 9.5L12.875 9.5L12.875 8ZM22.5 22L22.5 11.75Q22.5 11.6982 22.4817 11.6541Q22.4634 11.6099 22.4268 11.5732Q22.3902 11.5367 22.3461 11.5184L22.346 11.5183Q22.3018 11.5 22.25 11.5L10.25 11.5Q10.1982 11.5 10.154 11.5183L10.154 11.5183L10.154 11.5183Q10.1098 11.5366 10.0732 11.5732Q10.0366 11.6099 10.0183 11.6541Q10 11.6982 10 11.75L10 22L22.5 22ZM13.625 13.625L11.375 13.625L11.375 15.875L13.625 15.875L13.625 13.625ZM15.125 13.625L17.375 13.625L17.375 15.875L15.125 15.875L15.125 13.625ZM18.875 13.625L21.125 13.625L21.125 15.875L18.875 15.875L18.875 13.625ZM13.625 17.375L11.375 17.375L11.375 19.625L13.625 19.625L13.625 17.375ZM17.375 17.375L15.125 17.375L15.125 19.625L17.375 19.625L17.375 17.375Z" clip-rule="evenodd" fill="#000000" fill-opacity="1.000000" fill-rule="evenodd"/>
        </g>
    </symbol>

    <symbol id="icon-plan" width="32" height="32" viewBox="0 0 32 32" fill="none" xmlns="http://www.w3.org/2000/svg">
        <rect x="9.75" y="9.75" width="2.5" height="2.5" rx="1.25" fill="black" stroke="black" stroke-width="0.5"/>
        <rect x="9.75" y="14.75" width="2.5" height="2.5" rx="1.25" fill="black" stroke="black" stroke-width="0.5"/>
        <rect x="9.75" y="19.75" width="2.5" height="2.5" rx="1.25" fill="black" stroke="black" stroke-width="0.5"/>
        <rect x="15" y="10" width="7" height="2" fill="black"/>
        <rect x="15" y="15" width="7" height="2" fill="black"/>
        <rect x="15" y="20" width="7" height="2" fill="black"/>
    </symbol>

    <symbol id="icon-save" width="32.000000" height="32.000000" viewBox="0 0 32 32" fill="none" xmlns="http://www.w3.org/2000/svg" xmlns:xlink="http://www.w3.org/1999/xlink">
        <path id="Rectangle 279" d="M12.77 6L19.23 6C20.88 6 21.7 6 22.34 6.31C22.92 6.6 23.39 7.07 23.68 7.65C24 8.29 24 9.11 24 10.77L24 26L16 21.36L8 26L8 10.77C8 9.11 8 8.29 8.31 7.65C8.6 7.07 9.07 6.6 9.65 6.31C10.29 6 11.11 6 12.77 6Z" fill="#000000" fill-opacity="0.100000" fill-rule="nonzero"/>
        <path id="Rectangle 279" d="M20.33 5C20.12 5 19.75 5 19.23 5L12.77 5C12.24 5 11.87 5 11.66 5C11.29 5.01 10.99 5.02 10.75 5.04C10.45 5.06 10.18 5.1 9.95 5.15C9.68 5.22 9.43 5.3 9.21 5.42C9.01 5.51 8.83 5.62 8.66 5.75C8.48 5.87 8.32 6.01 8.17 6.17C8.01 6.32 7.87 6.48 7.75 6.66C7.62 6.83 7.51 7.01 7.42 7.21C7.3 7.43 7.22 7.68 7.15 7.95C7.1 8.18 7.06 8.45 7.04 8.75C7.02 8.99 7.01 9.29 7 9.66C7 9.87 7 10.24 7 10.77L7 27.73L16 22.52L25 27.73L25 10.77C25 10.24 24.99 9.87 24.99 9.66C24.98 9.29 24.97 8.99 24.95 8.75C24.93 8.45 24.89 8.18 24.84 7.95C24.77 7.68 24.69 7.43 24.57 7.21C24.48 7.01 24.37 6.83 24.24 6.66C24.12 6.48 23.98 6.32 23.82 6.17C23.67 6.01 23.51 5.87 23.33 5.75C23.16 5.62 22.98 5.51 22.78 5.42C22.56 5.3 22.31 5.22 22.04 5.15C21.81 5.1 21.54 5.06 21.24 5.04C21 5.02 20.7 5.01 20.33 5ZM16 21.36L23 25.42L24 26L24 10.77C24 9.11 24 8.29 23.68 7.65C23.39 7.07 22.92 6.6 22.34 6.31C21.7 6 20.88 6 19.23 6L12.77 6C11.11 6 10.29 6 9.65 6.31C9.07 6.6 8.6 7.07 8.31 7.65C8 8.29 8 9.11 8 10.77L8 26L9 25.42L16 21.36Z" fill="#3C3C43" fill-opacity="0.180000" fill-rule="evenodd"/>
        <path id="Rectangle 278" d="M12.77 6L19.23 6C20.88 6 21.7 6 22.34 6.31C22.92 6.6 23.39 7.07 23.68 7.65C24 8.29 24 9.11 24 10.77L24 26L16 21.36L8 26L8 10.77C8 9.11 8 8.29 8.31 7.65C8.6 7.07 9.07 6.6 9.65 6.31C10.29 6 11.11 6 12.77 6Z" fill="#000000" fill-opacity="0.100000" fill-rule="nonzero"/>
        <path id="Rectangle 278" d="M16 21.36L24 26L24 10.77C24 9.11 24 8.29 23.68 7.65C23.39 7.07 22.92 6.6 22.34 6.31C21.7 6 20.88 6 19.23 6L12.77 6C11.11 6 10.29 6 9.65 6.31C9.07 6.6 8.6 7.07 8.31 7.65C8 8.29 8 9.11 8 10.77L8 26L16 21.36ZM10 22.53L16 19.05L22 22.53L22 10.77C22 10.26 21.99 9.9 21.99 9.7C21.99 9.4 21.98 9.17 21.96 8.99C21.95 8.83 21.93 8.71 21.91 8.63C21.9 8.59 21.9 8.56 21.89 8.55C21.84 8.45 21.78 8.36 21.7 8.29C21.63 8.21 21.54 8.15 21.44 8.1C21.43 8.09 21.4 8.09 21.36 8.08C21.28 8.06 21.16 8.04 21 8.03C20.82 8.01 20.59 8 20.29 8C20.09 8 19.73 8 19.23 8L12.77 8C12.26 8 11.9 8 11.7 8C11.4 8 11.17 8.01 10.99 8.03C10.83 8.04 10.71 8.06 10.63 8.08C10.59 8.09 10.56 8.09 10.55 8.1C10.45 8.15 10.36 8.21 10.29 8.29C10.21 8.36 10.15 8.45 10.1 8.55C10.09 8.56 10.09 8.59 10.08 8.63C10.06 8.71 10.04 8.83 10.03 8.99C10.01 9.17 10 9.4 10 9.7C10 9.9 10 10.26 10 10.77L10 22.53Z" fill="#FFFFFF" fill-opacity="1.000000" fill-rule="evenodd"/>
    </symbol>


</svg>